<?xml version="1.0" encoding="utf-8"?>
<!-- Generator: Adobe Illustrator 27.1.1, SVG Export Plug-In . SVG Version: 6.00 Build 0)  -->
<svg version="1.1" id="Capa_1" xmlns="http://www.w3.org/2000/svg" xmlns:xlink="http://www.w3.org/1999/xlink" x="0px" y="0px"
	 viewBox="0 0 375.3 155.3" style="enable-background:new 0 0 375.3 155.3;" xml:space="preserve">
<style type="text/css">
	.st0{fill:none;stroke:#000000;stroke-width:5;stroke-miterlimit:10;}
</style>
<path class="st0" d="M355.9,152.8H7.4c-2.7,0-4.9-2.2-4.9-4.9l12-140.4c0-2.7,2.2-4.9,4.9-4.9h348.4c2.7,0,4.9,2.2,4.9,4.9
	l-12,140.4C360.8,150.6,358.6,152.8,355.9,152.8z"/>
<g>
	<path d="M111.4,55.9c-0.1-7.2-3.2-12.3-9.1-15.2c-3.3-1.6-7.2-2.4-11.7-2.4c-8.5,0-16.3,3.2-23.1,9.7C60.7,54.5,55.8,64.2,53,77.2
		c-2.7,13.1-1.7,22.3,3.1,27.7c4.8,5.4,11,8.1,18.5,8.1c7.4,0,14-2.1,19.7-6.4c5.7-4.3,9.8-9.9,12.4-16.9H82.1L86,72h44.2l-12.1,57
		h-14.7l0.6-13.3c-5.4,5-10,8.6-13.8,10.7c-6.6,3.6-14.2,5.4-22.8,5.4c-14.1,0-24.6-4.9-31.5-14.6c-7.2-9.8-9.1-23.2-5.5-40.2
		c3.6-17.2,11.3-31,23-41.3C65.1,25.2,78.7,20,94.2,20c13.5,0,23.6,3.4,30.3,10.3c6.7,6.8,9.6,15.4,8.6,25.6H111.4z"/>
	<path d="M238.9,34.1c2.3,4.5,2.8,9.9,1.5,16.2c-1.4,6.5-4.2,11.7-8.3,15.6c-2.3,2.2-5.4,4.2-9.3,6c5,2,8.4,5.1,10.3,9.4
		c1.8,4.3,2.1,9.5,0.8,15.6c-1.3,6.3-4.1,11.9-8.4,16.9c-2.7,3.3-5.9,6.1-9.4,8.4c-3.9,2.6-8.3,4.4-13.1,5.3c-4.8,1-10,1.4-15.4,1.4
		h-48.1l22.5-106.1h51.6C226.7,23,235.1,26.7,238.9,34.1z M170.6,82.2l-6,28.3h26.1c4.7,0,8.4-0.6,11.2-1.9
		c5.2-2.3,8.5-6.7,9.9-13.2c1.2-5.5-0.3-9.3-4.5-11.4c-2.3-1.2-5.8-1.8-10.4-1.8H170.6z M179.4,41.2l-5,23.4h26.1
		c4.7,0,8.6-0.9,11.9-2.6c3.3-1.8,5.4-4.9,6.4-9.3c1-4.9-0.2-8.2-3.7-9.8c-3.1-1.1-7.2-1.7-12.4-1.7H179.4z"/>
	<path d="M298.7,22.8h25.1l15,106.1h-24.1l-2.2-21.8h-39.1l-12,21.8h-23.2L298.7,22.8z M283.3,88.8h26.9l-4.4-41.8L283.3,88.8z"/>
</g>
</svg>
