<?xml version="1.0" encoding="utf-8"?>
<!-- Generator: Adobe Illustrator 27.1.1, SVG Export Plug-In . SVG Version: 6.00 Build 0)  -->
<svg version="1.1" id="Capa_1" xmlns="http://www.w3.org/2000/svg" xmlns:xlink="http://www.w3.org/1999/xlink" x="0px" y="0px"
	 viewBox="0 0 189.6 256.4" style="enable-background:new 0 0 189.6 256.4;" xml:space="preserve">
<style type="text/css">
	.st0{fill:#FFFFFF;}
</style>
<g>
	<path d="M50.7,135c0-11.7,0.1-23.2-0.1-34.8c0-1.1-1.9-2.4-3.2-3.1C27.6,86.4,17,66.3,19.8,44.3C22.4,24,38.4,6.6,59.4,1.5
		c22.6-5.5,46.9,5,58.1,25.2c11.4,20.6,7.6,45.1-9.6,61.8c-0.9,0.9-2.1,1.5-4.3,3.1c10.5,1.3,17,5.9,20.7,13.9
		c15.8-5.4,24-2.7,31.5,9.6c5.9-0.4,11.5-1.8,16.8-1c9.7,1.5,16.7,9.2,16.8,19c0.3,21.6,0.6,43.3-0.5,64.9c-1,20.1-12.3,35-27.8,47
		c-1.3,1-2.7,1.9-4.1,2.9c-8,5.8-16.6,8.9-26.9,8.4c-15.6-0.8-31.3-0.4-47-0.1c-8.9,0.2-16.2-2.9-22.7-8.7
		c-10.5-9.4-17.7-21.2-23.9-33.6c-9.5-18.9-18.5-38-27.7-57c-2.7-5.5-6.4-10.7-8-16.4c-2.7-9.4,1.7-18.3,10-22.9
		c8.5-4.7,18.1-3.4,25.3,3.5C40.8,125.7,45.6,130.2,50.7,135z M61.6,98.5c0,16.3,0.1,32.7-0.2,49c0,2.4-1.6,5.7-3.4,6.7
		c-1.4,0.8-5.1-0.7-6.7-2.2c-7.4-7.2-14.4-14.8-21.8-22.1c-1.7-1.7-3.9-3.2-6.2-3.8c-4.4-1.2-8.3,0.3-10.9,4.2
		c-3.1,4.5-1.7,8.9,0.6,13.2c5.2,9.7,10.5,19.3,15.4,29.1c7.5,14.8,14.2,30.1,22.3,44.6c4.5,8,10.8,15.1,16.8,22.2
		c3.8,4.5,9.2,6.2,15.3,6.1c15.2-0.2,30.4-0.7,45.5,0.1c10.1,0.6,18.1-2.7,25.7-8.5c13.8-10.6,23.8-23.8,24.5-41.6
		c0.8-20.3,0.3-40.7,0.2-61c0-6-4.8-10.3-10.7-10.3c-6.1,0-10.3,4.1-10.4,10.3c-0.1,7.8-0.1,15.7-0.1,23.5c0,3.9-0.9,7.3-5.5,7.3
		c-4.7,0-5.3-3.5-5.3-7.3c0.1-11.3,0.1-22.7,0-34c-0.1-6.2-5.1-10.8-11-10.6c-5.8,0.2-10,4.7-10.1,10.8c-0.1,7.8-0.1,15.7-0.1,23.5
		c0,3.7-1.1,7-5.3,7.1c-4.4,0.1-5.6-3.2-5.6-7.2c0.1-11,0.1-22,0-33c0-7.3-4.2-11.7-10.7-11.7c-6.4,0.1-10.3,4.3-10.4,11.3
		c-0.1,8,0,16-0.1,24c-0.1,3.4-1.8,5.9-5.4,5.9c-3.6-0.1-5.3-2.4-5.3-5.9c0-1.3,0-2.7,0-4c0-27.8,0-55.7,0-83.5
		c0-7.4-4-11.8-10.6-11.8c-6.6,0-10.5,4.2-10.6,11.7C61.5,66.5,61.6,82.5,61.6,98.5z M50.7,86c0-12.7-0.1-24.8,0-37
		c0.1-10.8,8.6-20,19-20.9c11.7-1,21.3,6,23.3,17.2c0.5,2.8,0.4,5.6,0.5,8.5c0,10.4,0,20.9,0,31.5c14-6.6,22.4-26,18.8-42
		c-4.4-19.3-21-32.4-40.9-32.3C51.8,11,34.8,24.5,30.9,43C27.3,60.1,35.9,79.2,50.7,86z"/>
	<path class="st0" d="M61.6,98.5c0-16,0-32,0-48c0-7.5,4-11.7,10.6-11.7c6.6,0,10.6,4.3,10.6,11.8c0,27.8,0,55.7,0,83.5
		c0,1.3,0,2.7,0,4c0,3.5,1.7,5.9,5.3,5.9c3.7,0.1,5.4-2.5,5.4-5.9c0.2-8,0.1-16,0.1-24c0-7.1,3.9-11.3,10.4-11.3
		c6.6-0.1,10.7,4.4,10.7,11.7c0,11,0.1,22,0,33c0,4,1.1,7.3,5.6,7.2c4.2-0.1,5.3-3.3,5.3-7.1c0-7.8,0-15.7,0.1-23.5
		c0-6.1,4.3-10.6,10.1-10.8c5.9-0.2,10.9,4.4,11,10.6c0.2,11.3,0.1,22.7,0,34c0,3.9,0.6,7.3,5.3,7.3c4.7,0,5.5-3.4,5.5-7.3
		c0-7.8,0-15.7,0.1-23.5c0.1-6.3,4.3-10.3,10.4-10.3c5.9,0,10.6,4.3,10.7,10.3c0.1,20.3,0.6,40.7-0.2,61
		c-0.7,17.9-10.6,31.1-24.5,41.6c-7.6,5.8-15.6,9.1-25.7,8.5c-15.1-0.9-30.3-0.4-45.5-0.1c-6.1,0.1-11.5-1.6-15.3-6.1
		c-6-7.1-12.3-14.2-16.8-22.2c-8.1-14.5-14.8-29.8-22.3-44.6c-4.9-9.8-10.2-19.4-15.4-29.1c-2.3-4.3-3.7-8.7-0.6-13.2
		c2.6-3.8,6.5-5.4,10.9-4.2c2.3,0.6,4.5,2.2,6.2,3.8c7.3,7.3,14.3,14.9,21.8,22.1c1.6,1.6,5.3,3,6.7,2.2c1.9-1,3.4-4.3,3.4-6.7
		C61.7,131.2,61.6,114.8,61.6,98.5z"/>
	<path class="st0" d="M50.7,86C35.9,79.2,27.3,60.1,30.9,43c3.9-18.6,20.9-32,40.5-32.1c19.9-0.1,36.5,13,40.9,32.3
		c3.6,16.1-4.8,35.4-18.8,42c0-10.7,0-21.1,0-31.5c0-2.8,0-5.7-0.5-8.5c-2-11.2-11.6-18.1-23.3-17.2c-10.5,0.9-18.9,10.1-19,20.9
		C50.6,61.1,50.7,73.3,50.7,86z"/>
</g>
</svg>
